<svg xmlns="http://www.w3.org/2000/svg">
    <g transform="scale(0.4)">
        <path d="M12.08 40.65c-.17 0-.28-.06-.39-.06-7 5.54-9.79 10-9.84 13.7L2 55.52c.67 4 4.64 6.88 9.73 9 5.25 2.24 14.59 3.63 22.53 4.47v-27.5c-7.48-.06-17.43-.17-22.18-.84z" fill="#be202e" />
        <path d="M11.69 40.59l.05-.06a2.19 2.19 0 0 1 .39-.27 185 185 0 0 1 22.09-14.82V2l-1.85-2a30.45 30.45 0 0 1-4.08 4.92c-5.31 5.14-11 8.78-15.71 12C5.7 21.58.45 25.38 0 31.48l.22 2.62 1.63 20.13c0-3.63 2.79-8.16 9.84-13.64z" fill="#f69320" />
        <path d="M60.05 28.85c.16 0 .28.06.39.06 7-5.54 9.84-10 9.84-13.7L70.17 14c-.67-4-4.64-6.88-9.68-9C55.24 2.74 45.9 1.34 38 .5V28c7.34 0 17.29.12 22.05.85z" fill="#00a69c" />
        <path d="M60.44 28.91l-.06.05a2.19 2.19 0 0 1-.39.28 185.85 185.85 0 0 1-22.08 14.82v23.42l1.79 2a30 30 0 0 1 4.08-4.92c5.31-5.15 10.9-8.78 15.71-12 6.87-4.65 12.13-8.45 12.58-14.56l-.23-2.63-1.62-20.11c.06 3.64-2.74 8.11-9.78 13.65z" fill="#a4cd39" />
        <g transform="translate(8, 12) scale(0.8)">
            <path d="M26.59-14.04L26.59-14.04Q27.37-14.37 28.86-14.79Q30.36-15.21 31.92-15.60L31.92-15.60Q33.61-16.05 34.32-16.25L34.32-16.25Q35.04-16.57 35.46-16.45Q35.88-16.32 36.01-15.99L36.01-15.99Q36.08-15.15 34.97-14.82L34.97-14.82Q33.15-14.43 30.23-13.59Q27.30-12.74 25.74-12.03L25.74-12.03Q24.12-8.84 22.46-6.11Q20.80-3.38 19.05-1.40Q17.29 0.58 15.37 1.50Q13.46 2.41 11.31 1.95L11.31 1.95Q10.08 1.69 9.23 1.14Q8.38 0.58 8.19-0.46L8.19-0.46Q8.00-2.08 9.49-4.16Q10.99-6.24 13.65-8.38Q16.32-10.53 19.76-12.29L19.76-12.29Q21.97-16.64 24.38-22.55Q26.78-28.47 28.21-33.34L28.21-33.34Q28.41-33.93 28.60-34.65L28.60-34.65Q29.12-36.40 29.64-38.32Q30.16-40.23 30.32-41.93Q30.48-43.62 30.03-44.62Q29.57-45.63 28.14-45.50L28.14-45.50Q26.20-44.91 24.21-42.74Q22.23-40.56 20.28-37.31Q18.33-34.06 16.51-30.19Q14.69-26.32 13.07-22.43Q11.44-18.53 10.01-15.02L10.01-15.02Q9.23-13.13 8.58-11.51L8.58-11.51Q7.61-7.02 6.96-4.49Q6.31-1.95 5.82-0.78Q5.33 0.39 4.84 0.72Q4.36 1.04 3.64 1.04L3.64 1.04Q3.31 1.10 2.37 1.01Q1.43 0.91 0.49 0.62Q-0.46 0.33-0.72-0.13L-0.72-0.13Q-0.91-0.65-0.55-3.09Q-0.20-5.53 0.55-9.13Q1.30-12.74 2.15-16.84L2.15-16.84Q2.67-19.30 3.19-21.78L3.19-21.78Q4.94-31.01 5.79-35.75L5.79-35.75Q6.37-38.68 6.86-41.34Q7.35-44.01 8.06-47.32L8.06-47.32Q8.19-47.45 9.10-47.45Q10.01-47.45 11.18-47.13Q12.35-46.80 13.23-45.99Q14.11-45.18 14.17-43.68L14.17-43.68Q14.43-42.38 13.88-38.45Q13.33-34.52 12.32-29.22Q11.31-23.92 10.14-18.59L10.14-18.59Q11.38-21.71 12.87-25.22Q14.37-28.73 16.09-32.21Q17.81-35.69 19.70-38.74Q21.58-41.80 23.63-43.91Q25.68-46.02 27.76-46.80Q29.84-47.58 31.92-46.61L31.92-46.61Q33.80-45.44 34.38-43.03Q34.97-40.63 34.61-37.47Q34.26-34.32 33.28-30.88Q32.30-27.43 31.04-24.15Q29.77-20.87 28.57-18.23Q27.37-15.60 26.59-14.04ZM10.08-0.91L10.08-0.91Q10.08-0.39 10.37-0.03Q10.66 0.33 11.05 0.26L11.05 0.26Q12.29-0.13 13.55-1.53Q14.82-2.93 16.15-5.10Q17.48-7.28 18.98-10.08L18.98-10.08Q14.76-7.61 12.42-5.13Q10.08-2.67 10.08-0.91ZM45.37-15.47L45.37-15.47Q45.44-15.60 45.60-16.22Q45.76-16.84 45.73-17.48Q45.70-18.14 45.24-18.53L45.24-18.53Q44.85-18.79 44.46-18.72Q44.07-18.66 43.78-18.46Q43.48-18.27 43.29-18.07L43.29-18.07Q42.84-17.62 42.19-16.57Q41.53-15.54 40.98-14.46Q40.43-13.39 40.23-12.74L40.23-12.74Q41.73-12.22 42.74-12.58Q43.74-12.94 44.36-13.75Q44.98-14.56 45.37-15.47ZM52.20-14.76L52.20-14.76Q52.33-15.08 52.52-15.24Q52.72-15.41 52.98-15.34L52.98-15.34Q53.50-15.28 53.30-14.50L53.30-14.50Q52.06-10.92 50.54-8.00Q49.01-5.07 47.16-3.06Q45.30-1.04 43.06-0.23Q40.82 0.58 38.22 0L38.22 0Q36.14-0.52 35.13-2.44Q34.13-4.36 34.19-7.31Q34.26-10.27 35.42-13.85L35.42-13.85Q36.20-16.12 37.50-17.81Q38.80-19.50 40.40-20.25Q41.99-21.00 43.68-20.54L43.68-20.54Q44.85-20.21 45.73-19.50Q46.61-18.79 46.83-17.62Q47.06-16.45 46.34-14.82L46.34-14.82Q45.89-13.78 45.05-12.84Q44.20-11.89 42.87-11.44Q41.53-10.99 39.71-11.51L39.71-11.51Q39-8.97 38.77-7.28Q38.55-5.59 38.61-4.52Q38.67-3.45 39-2.83Q39.33-2.21 39.65-1.89L39.65-1.89Q40.95-0.91 42.48-1.36Q44.00-1.82 45.53-3.28Q47.06-4.75 48.42-6.76Q49.79-8.78 50.80-10.89Q51.80-13 52.20-14.76ZM66.17-14.88L66.17-14.88Q65.91-14.24 65.58-13.59L65.58-13.59Q64.67-11.63 63.60-9.39Q62.53-7.15 61.36-5.00Q60.19-2.86 58.92-1.20Q57.66 0.46 56.39 1.27Q55.12 2.08 53.95 1.63L53.95 1.63Q52.20 1.24 51.41-0.42Q50.63-2.08 50.54-4.52Q50.44-6.96 50.83-9.72Q51.22-12.48 51.87-14.98Q52.52-17.48 53.17-19.27Q53.82-21.06 54.21-21.64L54.21-21.64Q54.34-21.78 55.05-21.78Q55.77-21.78 56.65-21.55Q57.52-21.32 58.11-20.87L58.11-20.87Q58.30-20.80 58.34-20.61Q58.37-20.41 58.24-20.15L58.24-20.15Q58.17-19.82 58.17-19.37L58.17-19.37Q58.17-19.37 57.69-17.39Q57.20-15.41 56.58-12.54Q55.96-9.69 55.45-6.79Q54.92-3.90 54.83-1.92Q54.73 0.07 55.31 0.20L55.31 0.20Q56.42 0.26 58.21-2.24Q59.99-4.75 61.98-8.71Q63.96-12.68 65.65-17.16L65.65-17.16Q65.72-17.16 65.97-16.77L65.97-16.77Q66.30-16.32 66.92-15.63Q67.53-14.95 68.25-14.43Q68.97-13.91 69.61-13.97Q70.27-14.04 70.72-15.02L70.72-15.02Q70.98-15.54 71.44-15.41L71.44-15.41Q71.63-15.34 71.73-15.15Q71.83-14.95 71.69-14.50L71.69-14.50Q71.17-13.33 70.23-12.97Q69.29-12.61 68.19-13.10Q67.08-13.59 66.17-14.88Z" transform="translate(0.7836111111111111, 47.45)" />
        </g>
    </g>
</svg>